<svg width="746" height="661" viewBox="0 0 746 661" fill="none" xmlns="http://www.w3.org/2000/svg">
<g clip-path="url(#clip0_51_55)">
<path d="M741.947 620.805L3.66699 621.16C1.64199 621.16 0 620.544 0 619.783C0 619.022 1.64199 618.406 3.66699 618.406L741.947 618.051C743.972 618.051 745.614 618.667 745.614 619.428C745.614 620.189 743.972 620.805 741.947 620.805Z" fill="#E6E6E6"/>
<path d="M741.581 315.39C739.687 310.519 742.393 308.084 743.475 303.754C744.557 299.424 741.039 285.894 741.039 285.894C741.039 285.894 729.674 239.079 726.156 229.879C724.667 225.986 721.434 223.307 718.2 221.509C717.981 220.315 717.664 219.544 717.226 219.326C714.092 217.758 706.283 214.353 701.079 213.411C700.106 211.739 698.952 210.178 697.638 208.758C698.552 207.003 698.976 205.034 698.864 203.058C698.532 197.953 694.664 193.378 695.164 188.286C695.545 184.425 698.364 181.253 699.458 177.529C699.915 175.856 700.023 174.108 699.776 172.392C699.528 170.675 698.931 169.028 698.02 167.553L700.42 170.108C701.509 168.476 702.034 166.532 701.913 164.574C701.792 162.616 701.033 160.751 699.751 159.266C697.216 156.466 692.978 155.416 691.011 152.191C688.99 148.878 690.075 144.375 688.164 140.997C683.483 132.722 671.499 138.588 664.322 135.697C661.372 134.51 659.13 133.204 655.811 133.297C652.99 133.459 650.201 133.98 647.511 134.847C643.653 135.964 640.294 138.371 637.997 141.667C638.224 141.409 638.472 141.172 638.74 140.957C640.479 139.594 643.53 139.707 644.448 141.717C644.667 142.222 644.759 142.773 644.716 143.322C644.565 145.745 642.449 147.554 640.345 148.767C638.241 149.98 635.876 150.994 634.503 152.996C632.238 156.296 633.57 160.735 633.571 164.741C633.553 167.287 632.963 169.796 631.846 172.084C630.73 174.372 629.114 176.381 627.118 177.962L634.754 174.84C631.108 181.221 628.715 188.24 627.702 195.52L638.026 186.991C634.203 193.077 631.879 199.984 631.245 207.143L639.532 198.652C639.91 199.315 640.099 200.069 640.079 200.832L639.215 204.165C638.91 204.827 638.572 205.472 638.201 206.1C636.868 208.39 635.489 211.208 636.736 213.546H636.742C635.429 217.963 633.449 222.383 629.042 224.531C633.929 225.042 639.029 222.599 641.236 218.71C641.597 219.41 642.033 220.068 642.536 220.674L642.958 221.204L641.74 222.016L638.477 224.192C638.477 224.192 617.099 228.522 618.452 236.64C618.508 236.974 618.574 237.373 618.652 237.82L612.501 248.276L603.571 278.584C603.571 278.584 598.971 288.326 599.782 292.384C600.593 296.442 599.782 298.067 599.782 305.373C599.782 312.679 596.264 315.656 599.782 321.609C603.3 327.562 613.853 344.881 613.853 344.881L616.171 346.62C616.058 347.664 616.098 348.719 616.288 349.752C618.453 360.576 638.748 464.218 638.748 464.218C638.748 464.218 628.465 546.211 649.302 551.353C651.915 551.998 654.482 552.583 656.975 553.104L660.126 573.813L658.232 600.062C658.232 600.062 643.89 632.535 670.139 634.429C696.388 636.323 684.481 606.286 684.481 606.286C685.867 603.721 686.434 600.793 686.105 597.897C685.837 595.488 683.584 582.953 681.375 570.897C691.336 569.703 689.475 559.13 688.145 554.482C688.719 554.148 689.149 553.614 689.352 552.982C689.652 551.903 688.952 547.656 687.687 541.705C686.655 535.789 684.892 526.213 683.687 519.726L690.162 520.78L717.493 360.58C717.493 360.58 717.673 358.03 717.593 354.3C721.33 352.367 725.184 350.669 729.131 349.215C738.061 345.697 741.579 332.708 744.556 327.296C747.533 321.884 743.475 320.261 741.581 315.39ZM644.541 213.39C645.426 212.78 646.462 212.429 647.535 212.375C647.304 213.634 645.135 214.001 643.324 214.661C643.658 214.173 644.069 213.744 644.542 213.391L644.541 213.39ZM630.904 294.011C633.096 297.611 629.127 307.373 625.55 315.119C623.5 313.353 621.361 313.91 623.868 308.895C625.578 305.717 626.593 302.212 626.845 298.612C626.845 297.993 627.162 293.447 629.829 291.558C630.109 292.408 630.469 293.23 630.903 294.012L630.904 294.011ZM622.691 325.098C623.932 324.598 625.81 323.817 628.348 322.955C627.132 324.555 625.748 326.455 624.348 328.526C623.821 328.126 623.396 327.607 623.108 327.011C622.82 326.415 622.677 325.76 622.691 325.098ZM710.462 328.649C708.817 326.901 707.487 325.337 706.393 323.938C708.435 324.475 710.513 325.053 712.627 325.672C713.681 325.829 714.757 325.758 715.78 325.462C715.874 327.333 715.874 330.002 715.874 330.002L712.91 332.054C712.234 330.826 711.412 329.684 710.462 328.654V328.649ZM718.862 319.264L718.762 319.352C718.617 318.282 718.375 317.227 718.039 316.201C716.266 310.608 715.318 300.684 714.814 292.215L719.934 309.435C719.934 309.435 720.205 318.094 718.861 319.263L718.862 319.264Z" fill="#F2F2F2"/>
<path d="M613.744 238.138C613.744 238.138 585.982 190.422 585.114 185.216C584.246 180.01 570.365 170.467 570.365 170.467C565.622 165.724 557.841 164.224 549.652 164.302C552.736 161.751 541.725 160.036 540.868 158.321C540 156.586 537.398 156.586 533.927 153.983C530.456 151.38 521.794 153.549 521.794 153.549C520.491 150.809 519.585 147.898 519.103 144.903C522.8 140.529 524.825 134.984 524.818 129.257C524.818 129.195 524.818 129.133 524.818 129.071C525.039 129.415 525.26 129.76 525.481 130.117C527.106 120.382 529.975 112.29 524.507 103.409C520.63 97.1151 514.563 92.4775 507.472 90.389L502.264 94.555L504.289 89.696C502.586 89.4354 500.863 89.3349 499.142 89.396L494.456 95.42L496.395 89.602C492.329 90.1073 488.412 91.4496 484.891 93.5442C481.37 95.6388 478.32 98.4403 475.936 101.772C469.972 110.372 470.371 122.324 476.236 130.991C476.256 130.93 476.271 130.871 476.291 130.81C476.55 134.864 477.822 138.789 479.99 142.224C482.159 145.66 485.154 148.496 488.703 150.474L490.176 162.261C488.85 163.492 487.148 164.243 485.345 164.392C482.745 164.392 480.14 171.333 480.14 171.333C480.14 171.333 478.665 172.077 477.075 175.592C472.975 178.38 460.487 187.138 455.852 193.259C453.11 194.608 450.165 197.61 450.643 204.302C451.511 216.448 450.643 272.84 450.643 272.84C450.643 272.84 442.835 320.556 445.438 324.027C448.041 327.498 444.57 338.776 444.57 338.776L447.17 339.354V342.246C447.17 342.246 439.342 378.536 451.508 376.946C471.462 374.346 456.713 344.846 456.713 344.846V341.476L460.183 342.247C460.183 342.247 461.918 330.101 465.388 329.233C466.595 328.933 468.012 325.688 469.347 321.59C470.125 327.984 470.594 331.836 470.594 331.836L476.023 330.63L477.535 336.174C477.908 336.383 478.298 336.56 478.701 336.702L477.535 343.114C477.535 343.114 476.667 350.055 477.535 354.392C477.973 356.58 494.077 403.341 509.935 449.16L509.635 460.236C509.635 460.236 501.827 468.912 503.562 474.985C505.297 481.058 499.224 531.377 499.224 531.377L494.019 556.537L495.329 556.937L494.129 561.346C493.093 561.869 492.172 562.593 491.419 563.475C484.472 571.286 475.8 593.846 475.8 593.846C475.8 593.846 460.184 617.27 484.476 616.403C508.768 615.536 510.503 606.86 510.503 606.86C510.503 606.86 513.973 584.303 513.973 583.436C513.973 582.569 512.238 573.65 512.238 573.65L511.564 572.907L512.035 562.085L516.576 563.485C516.576 563.485 520.914 540.928 524.384 538.325C525.597 537.415 528.824 527.283 532.508 514.268C536.274 525.111 539.92 562.603 541.108 566.006C540.69 566.579 540.322 567.187 540.008 567.823C536.108 575.307 531.762 582.549 526.994 589.512C526.994 589.512 499.232 605.996 526.994 610.334C526.994 610.334 542.61 611.202 550.418 605.996C558.226 600.79 579.048 592.982 579.048 591.247C579.048 589.512 573.843 564.005 568.637 566.781L565.15 558.761L568.637 557.411L546.672 458.82C547.191 456.718 547.573 454.585 547.815 452.434C547.815 447.891 559.049 359.426 561.907 336.988C574.488 340.552 585.988 314.488 585.988 314.488L588.84 309.354L592.929 311.885C592.929 311.885 596.399 303.209 601.605 302.342C606.811 301.475 616.354 255.493 616.354 249.42C616.275 245.521 615.39 241.681 613.754 238.142L613.744 238.138ZM573.322 306.112C572.468 304.756 571.477 303.492 570.365 302.339C572.633 296.431 574.375 290.334 575.57 284.12C577.305 274.577 572.97 243.344 572.97 243.344L572.894 241.223C577.152 246.813 582.513 254.265 582.513 256.358C582.513 257.368 582.747 258.364 583.199 259.267C583.65 260.171 584.305 260.957 585.113 261.563L579.908 279.782C579.908 279.782 576.438 288.458 575.57 292.796C575.05 295.368 574.759 297.981 574.702 300.604L575.932 301.365L573.322 306.112Z" fill="#E6E6E6"/>
<path d="M149.081 251.749L153.71 250.707L134.623 196.918L93.414 181.74C93.414 181.74 93.256 181.915 92.965 182.217C89.45 178.817 87.958 173.879 87.335 169.993C90.6489 168.654 93.6266 166.601 96.0554 163.978C98.4841 161.356 100.304 158.23 101.386 154.824C102.467 151.417 102.783 147.814 102.312 144.271C101.84 140.728 100.592 137.333 98.657 134.328C102.057 133.513 103.265 130.428 104.405 126.759C103.699 126.551 102.979 126.394 102.251 126.29L103.851 122.698L101.035 122.445L101.755 119.087L98.164 121.566C98.5699 120.391 98.6707 119.132 98.4567 117.908C98.2428 116.684 97.7212 115.534 96.941 114.566C95.3516 112.646 93.2787 111.184 90.936 110.332C86.3541 108.529 81.3641 108.024 76.5139 108.872C71.6637 109.719 67.1408 111.887 63.442 115.137L63.183 114.126C55.8585 119.757 51.0658 128.062 49.856 137.221C48.707 146.274 53.056 155.493 58.709 162.657C58.661 162.344 58.609 162.032 58.558 161.721C58.802 162.058 59.0543 162.388 59.315 162.712L60.01 189.119L58.27 190.611C58.27 190.611 29.07 203.822 27.931 219.6V219.612C26.178 227.293 25.311 267.201 25.311 267.201H27.711L25.311 282.817L9.69598 343.54C9.69598 343.54 -10.258 369.567 7.09599 374.773C17.878 378.008 20.955 365.498 21.739 355.561C22.364 358.024 24.232 359.689 27.918 360.024C28.208 360.05 28.518 360.072 28.818 360.097C20.618 381.297 26.184 450.252 26.184 450.252C21.846 458.928 73.033 518.79 73.033 518.79L76.115 517.146L76.782 518.48C75.067 518.644 73.9 518.79 73.9 518.79V545.685C73.9 545.685 66.092 572.58 76.5 577.785C79.194 579.132 82 578.152 84.689 575.964C84.176 584.264 83.44 596.65 83.44 599.474C83.44 603.812 94.718 611.62 94.718 611.62C94.718 611.62 97.318 621.163 118.142 621.163C138.966 621.163 123.347 596.003 123.347 596.003L112.067 570.84C112.067 570.84 111.223 571.253 108.667 569.174L109.582 559.113L114.668 559.562L121.609 458.056C121.609 458.056 127.682 367.829 128.55 353.947C128.753 349.497 128.648 345.038 128.236 340.602L153.709 288.012L149.081 251.749ZM130.286 285.41L127.686 294.48V274.421L130.286 285.41ZM21.976 349.748C21.998 346.569 21.84 344.405 21.84 344.405L38.796 310.483L38.319 320.983C38.319 320.983 24.74 338.163 21.976 349.748ZM61.748 447.648L78.232 389.521L87.775 459.794L87.091 485.342C85.9288 482.994 84.9958 480.54 84.305 478.013C81.702 467.6 61.748 447.646 61.748 447.646V447.648Z" fill="#F2F2F2"/>
<path d="M305.763 603.9C297.634 600.553 281.855 593.38 279.942 589.555C278.029 585.73 268.466 556.083 268.466 556.083L266.003 556.262C265.686 542.794 264.33 490.598 262.25 484.362C262.25 484.362 272.291 401.639 252.208 368.646L248.59 354.027C249.778 348.167 249.625 334.596 248.861 332.305C247.905 329.436 259.861 320.351 256.512 314.613C253.163 308.875 244.08 289.27 244.08 289.27C244.08 289.27 245.036 276.838 232.126 265.362C232.126 265.362 228.353 244.003 211.352 243.685C209.052 239.674 205.837 233.296 206.783 230.456C207.797 227.416 211.672 217.937 213.861 212.631C215.023 212.106 216.14 211.484 217.199 210.773C230.72 204.715 240.252 190.152 240.252 173.139C240.252 154.927 229.333 139.514 214.286 134.346C214.951 132.581 215.222 130.691 215.078 128.81C214.934 126.928 214.379 125.102 213.452 123.458C212.526 121.815 211.25 120.395 209.715 119.298C208.18 118.201 206.423 117.454 204.568 117.11C202.713 116.766 200.805 116.833 198.979 117.307C197.152 117.78 195.452 118.648 193.998 119.85C192.544 121.052 191.371 122.558 190.562 124.263C189.753 125.967 189.327 127.828 189.316 129.715C188.408 127.557 188.104 125.193 188.437 122.876C188.77 120.558 189.727 118.375 191.206 116.561C192.685 114.746 194.63 113.368 196.833 112.575C199.035 111.781 201.412 111.602 203.709 112.056C200.874 110.71 197.646 110.444 194.629 111.307C191.613 112.169 189.014 114.102 187.319 116.743C185.625 119.384 184.951 122.552 185.424 125.654C185.897 128.756 187.484 131.579 189.889 133.595C190.037 134.067 190.213 134.53 190.416 134.982C176.257 140.696 166.157 155.622 166.157 173.138C166.157 189.386 174.85 203.401 187.409 209.906C187.342 215.191 186.031 224.106 178.743 229.532C174.978 227.812 169.753 225.923 166.4 226.78C164.666 225.429 162.05 224.98 158.49 228.542C151.318 235.714 145.101 254.363 145.101 265.842C145.101 277.321 146.536 343.783 146.536 343.783C146.536 343.783 138.885 346.652 144.145 350.955C145.231 351.86 146.594 352.367 148.008 352.391L153.23 391.121C153.23 391.121 149.883 428.421 162.793 428.896C163.805 428.952 164.811 428.705 165.683 428.187L156.099 471.453C156.099 471.453 134.099 485.798 116.889 514.01C108.023 528.541 103.602 537.48 101.394 542.743L98.2398 540.788L87.2398 561.827C87.2398 561.827 62.8548 576.645 68.1168 587.643C73.3788 598.641 78.1588 601.51 78.1588 601.51L81.5058 600.075L87.7218 611.551C87.7218 611.551 103.98 634.981 130.279 623.027C131.513 621.368 132.18 619.356 132.18 617.289C132.18 615.222 131.513 613.209 130.279 611.551C125.979 605.335 114.979 591.951 114.979 591.951L122.151 555.61L120.667 554.69L166.143 499.665C166.143 499.665 179.532 491.536 184.313 484.365C189.094 477.194 218.737 403.075 218.737 403.075L235.473 480.538C235.473 480.538 234.517 508.75 238.82 526.92C241.166 537.113 242.695 547.476 243.395 557.912L242.168 558.001L245.037 579.519C245.037 579.519 232.605 610.119 241.212 612.512C247.335 614.094 253.569 615.213 259.861 615.859L260.817 612.512C260.817 612.512 297.636 632.595 311.024 617.772C311.023 617.767 313.892 607.247 305.763 603.9ZM174.745 369.121C176.18 370.556 175.701 377.25 175.701 377.25L172.832 395.899L169.967 408.834C169.57 402.723 168.77 396.645 167.572 390.639L166.248 354.902C166.508 355.066 166.794 355.185 167.094 355.255C168.05 355.255 167.572 347.126 167.572 347.126C167.572 347.126 168.13 345.674 168.826 343.383C170.685 348.948 172.954 352.583 175.7 353.342L176.178 359.558C176.178 359.558 169.962 362.427 175.7 362.427C176.033 362.415 176.363 362.366 176.686 362.281L176.179 364.818C176.179 364.818 173.311 367.686 174.745 369.121Z" fill="#E6E6E6"/>
<path d="M431.896 573.516L436.12 603.084L457.24 600.972L455.128 570.348L431.896 573.516Z" fill="#ED9DA0"/>
<path d="M331.578 573.516L327.354 603.084L306.234 600.972L308.346 570.348L331.578 573.516Z" fill="#ED9DA0"/>
<path d="M300.954 267.281C300.954 267.281 281.946 289.457 286.17 324.304C290.394 359.151 297.786 438.35 297.786 438.35L303.066 578.796L336.858 576.684L342.138 457.358L359.038 361.264L404.44 473.198C404.44 473.198 426.616 577.74 427.67 577.74C428.724 577.74 459.35 574.572 459.35 574.572L444.57 451.022C444.57 451.022 421.336 271.505 407.608 268.337C393.88 265.169 300.954 267.281 300.954 267.281Z" fill="#090814"/>
<path d="M459.351 596.749C459.351 596.749 440.343 584.077 432.951 598.861C425.559 613.645 431.894 624.203 431.894 624.203C431.894 624.203 438.23 628.427 435.062 632.651C431.894 636.875 430.838 664.331 458.294 660.107C485.75 655.883 472.022 627.372 472.022 627.372L459.351 596.749Z" fill="#090814"/>
<path d="M304.123 596.749C304.123 596.749 323.131 584.077 330.523 598.861C337.915 613.645 331.579 624.205 331.579 624.205C331.579 624.205 325.243 628.429 328.411 632.653C331.579 636.877 332.635 664.333 305.179 660.109C277.723 655.885 291.451 627.374 291.451 627.374L304.123 596.749Z" fill="#090814"/>
<path d="M326.826 73.212C326.826 73.212 334.218 101.526 326.826 116.312C319.434 131.098 340.554 146.077 340.554 146.077C340.554 146.077 385.345 122.45 379.009 109.777C372.673 97.104 366.953 78.493 369.065 67.933L326.826 73.212Z" fill="#ED9DA0"/>
<path d="M345.305 87.6259C363.967 87.6259 379.096 72.4972 379.096 53.8349C379.096 35.1727 363.967 20.0439 345.305 20.0439C326.643 20.0439 311.514 35.1727 311.514 53.8349C311.514 72.4972 326.643 87.6259 345.305 87.6259Z" fill="#ED9DA0"/>
<path d="M328.168 99.6959C328.168 99.6959 350.912 131.565 376.199 91.5859L406.553 104.659L420.28 265.169C420.28 265.169 333.255 311.13 296.296 273.114L311.514 122.614L328.168 99.6959Z" fill="#54814F"/>
<path d="M328.3 99.65L284.058 123.55L300.949 199.263L328.3 99.65Z" fill="#54814F"/>
<path d="M294.619 282.066L308.347 291.566C308.347 291.566 290.923 310.046 287.755 306.878C286.838 305.998 286.127 304.926 285.67 303.74C285.214 302.554 285.025 301.282 285.115 300.014L281.947 292.622L294.619 282.066Z" fill="#ED9DA0"/>
<path d="M385.876 280.011L381.209 287.345C381.209 287.345 367.481 293.681 370.649 297.905C373.817 302.129 400.217 311.633 405.496 302.129L410.776 292.629L385.876 280.011Z" fill="#ED9DA0"/>
<path d="M291.174 121.241C291.174 121.241 283.474 117.154 278.395 135.841C273.316 154.528 270.859 196 270.859 196C270.859 196 266.107 210.256 271.387 244.047C276.667 277.838 281.895 299.847 281.895 299.847L305.178 283.123L294.618 255.667L308.346 155.349L291.174 121.241Z" fill="#54814F"/>
<path d="M402.652 102.939L424.303 111.676C424.303 111.676 441.439 121.755 444.603 142.876C447.767 163.997 455.913 181.267 446.927 220.817C437.941 260.367 408.66 301.075 408.66 301.075L382.26 282.067L419.224 216.591L401.273 138.451L402.652 102.939Z" fill="#54814F"/>
<path d="M309.589 20.41C309.835 16.667 312.311 12.836 320.176 10.834C320.176 10.834 333.676 -6.42604 352.016 2.62496C352.016 2.62496 360.908 1.09497 367.502 10.325C367.502 10.325 374.039 6.46897 376.802 13.303C376.802 13.303 384.469 27.243 381.646 41.461C378.823 55.679 377.378 57.454 377.378 57.454C377.378 57.454 380.978 28.043 360.253 30.082C339.528 32.121 322.845 24.834 318.153 40.79C314.253 54.039 314.747 60.92 314.747 60.92C314.747 60.92 301.716 47.703 306.147 37.295C308.407 31.971 309.208 26.184 309.589 20.41Z" fill="#090814"/>
</g>
<defs>
<clipPath id="clip0_51_55">
<rect width="745.614" height="660.547" fill="white"/>
</clipPath>
</defs>
</svg>
